<svg xmlns="http://www.w3.org/2000/svg" viewBox="0 0 220 56" role="img" aria-label="Pi-Sky">
  <defs>
    <style>
      .logo-st0 {
        fill: #519b2f;
      }

      .logo-st1 {
        fill: url(#logo-linear-gradient);
      }

      .logo-st2 {
        fill: #c51d4a;
        isolation: isolate;
        opacity: .7;
      }
    </style>
    <linearGradient id="logo-linear-gradient" x1="2" y1="62" x2="62" y2="2" gradientUnits="userSpaceOnUse">
      <stop offset="0" stop-color="#3d5066"/>
      <stop offset="1" stop-color="#5a7a8a"/>
    </linearGradient>
  </defs>
  <g transform="translate(4 4) scale(0.75)">
    <path class="logo-st1" d="M62,32c0,6.2-1.9,11.9-5.1,16.7-.5.7-1,1.4-1.5,2.1-1.4,1.8-3,3.4-4.8,4.8-.8.6-1.6,1.2-2.4,1.7-4.2,2.7-9.1,4.4-14.5,4.7-.6,0-1.1,0-1.7,0s-1.3,0-1.9,0c-5.4-.3-10.3-2.1-14.6-4.9-.7-.5-1.5-1-2.1-1.5-1.8-1.4-3.3-3-4.8-4.7-.5-.7-1.1-1.4-1.5-2.1-3.2-4.8-5.1-10.5-5.1-16.7C2,15.4,15.4,2,32,2s30,13.4,30,30Z"/>
    <path class="logo-st2" d="M56.1,47.7c-.3-1.9-.9-3.2-1.5-4.7-.8-6-5.9-8.8-7.2-9.1-.2-.2-.4-.3-.6-.5-1.8-1.3-3.7-2.5-6.3-3.4-2.7-2.7-5.6-3.8-8.5-3.8h-.1c-2.9,0-5.8,1-8.5,3.8-2.5.9-4.5,2.1-6.3,3.4-.2.1-.4.3-.6.5-1.3.3-6.4,3.1-7.2,9.1-.5,1.5-1.1,2.8-1.5,4.7-.3.3-.6.7-.8,1,.5.7,1,1.4,1.5,2.1.4-.7.9-1.4,1.5-1.8,1.4-.6,2.8,3,3.2,6.5.7.5,1.4,1.1,2.1,1.5.2-2.1,1.1-3.9,2.8-5,3.2-2.1,7.9-.7,10.4,3,1.5,2.2,1.9,4.8,1.3,6.9.6,0,1.3,0,1.9,0s1.2,0,1.7,0c-.8-2.2-.4-5,1.2-7.3,2.5-3.8,7.2-5.1,10.4-3,1.9,1.2,2.9,3.3,2.9,5.6.8-.5,1.6-1.1,2.4-1.7.5-3.7,1.8-7.5,3.3-6.8.6.5,1.2,1.2,1.6,2,.5-.7,1.1-1.4,1.5-2.1-.2-.3-.5-.7-.8-1ZM31.8,28.4c3.1-.1,6.2,2,7.2,3.4.3.3.4.7.4.9,0,1.2-2.5,2.3-5.1,2.7-1,.2-1.9.2-2.7.2-.6,0-1.3,0-1.9,0-2.7-.3-5.4-1.2-5.4-2.4,0-.3.2-.8.5-1.2,1.2-1.6,4.1-3.5,7-3.4ZM20.7,45.3c-2.8,3.1-5.7,5.1-7.8,3.5-1.4-1.4-2.2-6.5.2-9.5,3.3-4.6,7.9-4.7,9.6-3.5,1.8,1.6.4,6.7-2,9.5ZM39.6,44.9c0,3.9-3.5,7.1-7.8,7.1-4.3,0-7.8-3.2-7.8-7.1h0c0-3.3,2.4-6.1,5.6-6.9.7-.2,1.4-.3,2.1-.3.9,0,1.8.1,2.6.4,3.1.9,5.3,3.6,5.3,6.7h0ZM51.2,47.9c-2.2,1.3-5.5-.5-8-3.4-2.2-2.6-3.2-7.3-1.4-8.7,1.8-1,6-.6,9.1,3.7,2,3.6,1.8,7.3.3,8.4Z"/>
    <path class="logo-st0" d="M17.2,21.8v3.1l12.5,7.8v8.6c0,1.3,1,2.3,2.3,2.3s2.3-1,2.3-2.3v-8.6l12.5-7.8v-3.1l-12.5,3.9v-8.6l3.1-2.3v-2.3l-5.5,1.6-5.5-1.6v2.3l3.1,2.3v8.6l-12.5-3.9Z"/>
  </g>
  <text x="58" y="37" font-family="system-ui, -apple-system, 'Segoe UI', Roboto, Ubuntu, sans-serif" font-size="22" font-weight="700" fill="#1a2634" letter-spacing="-0.02em">Pi-Sky</text>
</svg>
